<svg width="30" height="31" viewBox="0 0 30 31" fill="none" xmlns="http://www.w3.org/2000/svg">
<rect width="30" height="31" fill="#DEE5FF"/>
<path d="M2.1329 23.6082V23.7582H2.2829H15.0929H15.2429V23.6082V18.4842V18.3342H15.0929H14.5259H14.4217L14.3853 18.4318L12.6997 22.9542H6.6749V7.69313L8.47946 7.41852L8.6069 7.39913V7.27023V6.80823V6.65823H8.4569H2.2829H2.1329V6.80823V7.27023V7.39913L2.26033 7.41852L4.0649 7.69313V22.7247L2.25876 23.0192L2.1329 23.0397V23.1672V23.6082Z" fill="#050231" stroke="#050231" stroke-width="0.3"/>
<path d="M17.5618 23.6082V23.7582H17.7118H23.8858H24.0358V23.6082V23.1672V23.0397L23.91 23.0192L22.1038 22.7247V7.48323H25.3363L26.8746 11.5444L26.9113 11.6412H27.0148H27.6448H27.7948V11.4912V6.80823V6.65823H27.6448H13.9738H13.8238V6.80823V11.4912V11.6412H13.9738H14.5828H14.6859L14.7229 11.545L16.2819 7.48323H19.4938V22.7247L17.6877 23.0192L17.5618 23.0397V23.1672V23.6082Z" fill="#2B59FF" stroke="#2B59FF" stroke-width="0.3"/>
</svg>
